<svg xmlns="http://www.w3.org/2000/svg" viewBox="0 0 256 256">
  <rect width="256" height="256" rx="48" fill="#0B132B"/>
  <g transform="translate(28,28) scale(0.78)">
    <path fill="#FAFAFA" d="M 129.44 14.32 C 124.57 14.48 119.52 15.67 115.04 17.47 C 110.55 19.28 106.10 21.91 102.51 25.16 C 98.93 28.41 96.32 32.92 93.55 36.98 C 90.78 41.05 88.49 45.36 85.90 49.52 C 83.32 53.69 80.60 57.80 78.05 61.98 C 75.49 66.15 73.10 70.40 70.58 74.59 C 68.07 78.78 65.49 82.95 62.94 87.13 C 60.39 91.31 57.83 95.49 55.28 99.66 C 52.73 103.84 50.18 108.02 47.63 112.20 C 45.08 116.38 42.51 120.55 39.97 124.74 C 37.43 128.92 34.95 133.13 32.40 137.31 C 29.85 141.48 27.20 145.62 24.66 149.81 C 22.13 153.99 19.53 158.15 17.19 162.42 C 14.84 166.68 12.11 170.79 10.58 175.39 C 9.05 179.99 8.10 185.11 8.00 190.02 C 7.90 194.94 8.67 200.22 10.01 204.90 C 11.35 209.58 13.34 214.02 16.04 218.11 C 18.73 222.20 22.42 226.24 26.19 229.44 C 29.95 232.64 34.23 235.31 38.64 237.30 C 43.05 239.29 47.71 240.67 52.65 241.40 C 57.58 242.13 63.02 241.64 68.23 241.68 C 73.45 241.73 78.97 242.25 83.94 241.68 C 88.91 241.12 94.24 240.87 98.08 238.30 C 101.91 235.74 104.02 230.30 106.95 226.27 C 109.88 222.25 113.15 218.33 115.66 214.17 C 118.16 210.01 123.31 203.91 121.97 201.32 C 120.63 198.73 112.63 199.07 107.62 198.62 C 102.61 198.17 97.15 198.62 91.91 198.62 C 86.68 198.62 81.41 198.69 76.21 198.62 C 71.00 198.55 65.07 199.82 60.68 198.19 C 56.29 196.56 51.50 192.73 49.87 188.81 C 48.23 184.89 49.48 179.14 50.89 174.68 C 52.30 170.22 55.83 166.25 58.34 162.06 C 60.86 157.87 63.47 153.71 65.99 149.52 C 68.51 145.33 70.93 141.10 73.45 136.91 C 75.97 132.71 78.59 128.56 81.10 124.37 C 83.62 120.18 86.05 115.95 88.56 111.75 C 91.06 107.55 93.62 103.38 96.13 99.18 C 98.65 94.99 101.13 90.78 103.66 86.60 C 106.19 82.41 108.80 78.25 111.32 74.06 C 113.84 69.87 115.43 64.65 118.77 61.44 C 122.12 58.23 127.31 54.58 131.39 54.79 C 135.46 55.01 141.29 59.03 143.22 62.71 C 145.14 66.39 144.24 72.41 142.95 76.88 C 141.66 81.34 137.99 85.29 135.50 89.50 C 133.01 93.70 130.52 97.91 128.00 102.10 C 125.48 106.29 122.93 110.47 120.39 114.65 C 117.85 118.84 115.34 123.03 112.78 127.21 C 110.23 131.39 107.52 135.50 105.08 139.72 C 102.64 143.95 97.79 148.96 98.14 152.56 C 98.50 156.15 103.09 159.84 107.22 161.30 C 111.35 162.76 117.73 161.30 122.93 161.30 C 128.12 161.30 133.20 161.30 138.40 161.30 C 143.59 161.30 148.87 161.30 154.10 161.30 C 159.34 161.30 165.45 160.16 169.81 161.30 C 174.17 162.45 179.92 165.00 180.25 168.18 C 180.58 171.36 174.71 176.35 171.79 180.38 C 168.87 184.41 165.73 188.34 162.74 192.34 C 159.75 196.33 156.84 200.36 153.84 204.36 C 150.85 208.35 147.76 212.31 144.77 216.31 C 141.77 220.30 137.92 224.25 135.89 228.34 C 133.87 232.43 130.60 238.61 132.61 240.84 C 134.62 243.06 142.79 241.54 147.96 241.68 C 153.14 241.83 158.43 241.68 163.67 241.68 C 168.90 241.68 174.14 241.68 179.38 241.68 C 184.61 241.68 189.97 241.97 195.08 241.68 C 200.20 241.40 205.35 241.21 210.07 239.96 C 214.79 238.72 219.23 236.77 223.40 234.22 C 227.57 231.67 231.78 228.30 235.08 224.64 C 238.38 220.99 241.16 216.69 243.22 212.31 C 245.27 207.92 246.76 203.19 247.43 198.34 C 248.09 193.49 248.06 188.01 247.22 183.20 C 246.38 178.39 244.45 173.88 242.41 169.49 C 240.36 165.10 237.44 161.07 234.95 156.87 C 232.47 152.66 230.52 148.10 227.50 144.25 C 224.48 140.39 220.92 136.21 216.82 133.74 C 212.72 131.27 207.83 130.15 202.90 129.44 C 197.96 128.72 192.43 129.44 187.19 129.44 C 181.96 129.44 176.23 130.15 171.48 129.44 C 166.74 128.72 159.57 127.95 158.72 125.15 C 157.86 122.35 163.77 116.77 166.36 112.61 C 168.94 108.44 171.57 104.30 174.22 100.16 C 176.87 96.02 180.25 92.19 182.26 87.78 C 184.27 83.38 186.38 78.38 186.28 73.74 C 186.18 69.10 183.68 64.35 181.67 59.94 C 179.66 55.54 176.67 51.54 174.22 47.32 C 171.77 43.10 169.81 38.64 166.97 34.62 C 164.12 30.60 160.95 26.24 157.16 23.22 C 153.37 20.19 148.86 17.97 144.24 16.49 C 139.62 15.01 134.30 14.15 129.44 14.32 Z"/>
  </g>
</svg>
